<svg width="141" height="141" viewBox="0 0 141 141" fill="none" xmlns="http://www.w3.org/2000/svg">
<path d="M58.791 39.4822H78.4029C81.4525 39.4822 84.0174 40.5879 86.1031 42.8021C88.1888 44.9333 89.2303 47.6 89.2303 50.7968C89.2303 53.9936 88.1888 56.7005 86.1031 58.9147C84.0174 61.0459 81.4498 62.1115 78.4029 62.1115H58.791V39.4795V39.4822Z" fill="#EF7514"/>
<path d="M89.1095 95.5674C86.9435 97.8619 84.2554 99.0106 81.0479 99.0106H58.7881V74.9033H81.0479C84.2554 74.9033 86.9435 76.0921 89.1095 78.4696C91.3559 80.7641 92.4777 83.5941 92.4777 86.9569C92.4777 90.3197 91.3559 93.1899 89.1095 95.5674Z" fill="#EF7514"/>
<path fill-rule="evenodd" clip-rule="evenodd" d="M121.554 3.90205C119.208 1.52988 116.03 0.199219 112.713 0.199219H27.5852C24.2706 0.199219 21.0898 1.53256 18.7444 3.90205L3.66267 19.1552C1.31728 21.5273 0 24.7429 0 28.0976V112.593C0 115.948 1.31728 119.164 3.66267 121.536L18.7444 136.789C21.0898 139.161 24.2679 140.492 27.5852 140.492H112.716C116.033 140.492 119.211 139.159 121.556 136.789L136.638 121.536C138.983 119.164 140.301 115.948 140.301 112.593V82.2051C140.301 80.1943 139.508 78.2613 138.097 76.8342L133.141 71.8221C132.26 70.9306 132.26 69.4901 133.141 68.6012L138.097 63.5891C139.508 62.1621 140.301 60.2317 140.301 58.2183V28.0976C140.301 24.7429 138.983 21.5273 136.638 19.1552L121.556 3.90205H121.554ZM48.7607 17.4015L60.0137 20.4376V26.2556L67.5158 38.9009V17.4041L78.7689 20.4403V26.2609C85.4945 26.3439 91.1786 28.6358 95.8185 33.1365C100.627 37.6399 103.029 43.2918 103.029 50.0897C103.029 57.5436 100.185 63.3991 94.4959 67.6561C98.18 69.6213 101.066 72.3255 103.149 75.7632C105.232 79.2037 106.274 83.1743 106.274 87.6803C106.274 94.7219 103.829 100.58 98.943 105.247C94.0568 109.913 88.0862 112.248 81.0366 112.248H78.7689V119.33L67.5158 122.366V99.6027L60.0137 112.248V119.33L48.7607 122.366V102.133L42.7606 112.248H35.0096V101.86L44.9829 98.9816V39.5248L35.0096 36.6466V26.2583H42.7606L48.7607 36.3761V17.4068V17.4015Z" fill="#EF7514"/>
</svg>
