<svg width="655" height="201" viewBox="0 0 655 201" fill="none" xmlns="http://www.w3.org/2000/svg">
<path d="M83.5332 56.5663H111.235C115.542 56.5663 119.165 58.1282 122.111 61.2557C125.057 64.266 126.528 68.0326 126.528 72.548C126.528 77.0634 125.057 80.8868 122.111 84.0143C119.165 87.0246 115.538 88.5298 111.235 88.5298H83.5332V56.5625V56.5663Z" fill="#EF7514"/>
<path d="M126.358 135.785C123.298 139.026 119.501 140.649 114.971 140.649H83.5293V106.598H114.971C119.501 106.598 123.298 108.277 126.358 111.635C129.531 114.876 131.115 118.873 131.115 123.623C131.115 128.373 129.531 132.427 126.358 135.785Z" fill="#EF7514"/>
<path fill-rule="evenodd" clip-rule="evenodd" d="M172.185 6.30928C168.872 2.95864 164.383 1.0791 159.698 1.0791H39.4567C34.7749 1.0791 30.2821 2.96242 26.9693 6.30928L5.66662 27.854C2.35379 31.2046 0.493164 35.7465 0.493164 40.4851V159.834C0.493164 164.572 2.35379 169.114 5.66662 172.465L26.9693 194.01C30.2821 197.36 34.7711 199.24 39.4567 199.24H159.702C164.387 199.24 168.876 197.356 172.189 194.01L193.492 172.465C196.805 169.114 198.665 164.572 198.665 159.834V116.911C198.665 114.071 197.546 111.34 195.553 109.325L188.553 102.245C187.309 100.986 187.309 98.9511 188.553 97.6956L195.553 90.6161C197.546 88.6005 198.665 85.8738 198.665 83.0299V40.4851C198.665 35.7465 196.805 31.2046 193.492 27.854L172.189 6.30928H172.185ZM69.3666 25.3769L85.2614 29.6655V37.8832L95.8579 55.7445V25.3807L111.753 29.6692V37.8908C121.252 38.008 129.281 41.2452 135.835 47.6024C142.627 53.9633 146.019 61.9466 146.019 71.5485C146.019 82.0769 142.003 90.3476 133.967 96.3606C139.17 99.1365 143.247 102.956 146.189 107.812C149.132 112.671 150.603 118.28 150.603 124.644C150.603 134.59 147.15 142.865 140.248 149.457C133.347 156.048 124.913 159.346 114.956 159.346H111.753V169.349L95.8579 173.637V141.485L85.2614 159.346V169.349L69.3666 173.637V145.058L60.8917 159.346H49.9435V144.673L64.0306 140.607V56.6256L49.9435 52.5603V37.887H60.8917L69.3666 52.1783V25.3845V25.3769Z" fill="#EF7514"/>
<path d="M624.624 200.798C615.124 200.798 607.572 197.874 601.971 192.028C596.45 186.102 593.689 177.858 593.689 167.303C593.689 156.748 596.45 148.628 601.971 142.699C607.492 136.773 614.882 133.808 624.14 133.808C633.397 133.808 640.987 136.852 646.429 142.941C651.871 149.029 654.591 156.54 654.591 165.472L653.982 171.561H608.309C608.635 176.515 610.257 180.493 613.18 183.496C616.103 186.503 619.961 188.004 624.752 188.004C630.194 188.004 634.657 185.569 638.151 180.698H653.377C651.429 186.624 648.018 191.457 643.147 195.193C638.355 198.93 632.184 200.798 624.635 200.798H624.624ZM608.302 160.605H639.97C639.32 156.464 637.614 153.095 634.853 150.497C632.093 147.898 628.519 146.598 624.136 146.598C619.995 146.598 616.546 147.857 613.781 150.372C611.1 152.807 609.274 156.218 608.302 160.601V160.605Z" fill="white"/>
<path d="M554.665 199.58L530.916 135.029H546.141L563.193 184.359H563.802L580.854 135.029H596.079L572.33 199.58H554.669H554.665Z" fill="white"/>
<path fill-rule="evenodd" clip-rule="evenodd" d="M500.821 135.026V199.577H514.828V164.256C514.828 159.385 516.371 155.527 519.457 152.683C521.889 150.445 524.971 149.087 528.711 148.614L523.231 136.221C519.764 137.477 516.961 139.716 514.828 142.942H514.22L512.393 135.026H500.821Z" fill="white"/>
<path d="M462.174 200.798C452.674 200.798 445.122 197.874 439.521 192.028C434 186.102 431.239 177.858 431.239 167.303C431.239 156.748 434 148.628 439.521 142.699C445.043 136.773 452.432 133.808 461.69 133.808C470.948 133.808 478.538 136.852 483.98 142.941C489.418 149.029 492.141 156.54 492.141 165.472L491.532 171.561H445.86C446.185 176.515 447.807 180.493 450.73 183.496C453.654 186.503 457.511 188.004 462.303 188.004C467.741 188.004 472.207 185.569 475.701 180.698H490.927C488.979 186.624 485.568 191.457 480.697 195.193C475.906 198.93 469.734 200.798 462.185 200.798H462.174ZM445.856 160.605H477.524C476.874 156.464 475.168 153.095 472.408 150.497C469.647 147.898 466.073 146.598 461.69 146.598C457.549 146.598 454.096 147.857 451.336 150.372C448.654 152.807 446.828 156.218 445.856 160.601V160.605Z" fill="white"/>
<path d="M399.276 200.798C391.645 200.798 385.473 198.971 380.764 195.318C376.136 191.665 373.171 186.794 371.874 180.701H387.099C387.749 182.895 389.13 184.68 391.24 186.06C393.35 187.361 396.031 188.008 399.28 188.008C407.399 188.008 411.461 185.777 411.461 181.31C411.461 179.117 410.16 177.453 407.562 176.318C405.043 175.184 401.961 174.288 398.304 173.637C394.731 172.907 391.119 172.015 387.466 170.956C383.813 169.821 380.685 167.749 378.087 164.742C375.568 161.657 374.313 157.637 374.313 152.686C374.313 147.244 376.465 142.74 380.768 139.166C385.072 135.593 391.04 133.808 398.671 133.808C406.303 133.808 412.354 135.513 416.82 138.924C421.286 142.336 424.168 146.923 425.469 152.686H410.243C408.617 148.628 404.764 146.598 398.671 146.598C392.174 146.598 388.926 148.628 388.926 152.686C388.926 154.554 389.818 156.097 391.607 157.315C393.475 158.45 395.789 159.263 398.55 159.751C401.311 160.155 404.276 160.847 407.441 161.823C410.69 162.715 413.692 163.771 416.453 164.988C419.214 166.206 421.487 168.237 423.275 171.077C425.143 173.838 426.078 177.249 426.078 181.307C426.078 187.07 423.805 191.782 419.255 195.435C414.706 199.009 408.05 200.794 399.28 200.794L399.276 200.798Z" fill="white"/>
<path d="M338.098 200.798C328.598 200.798 321.046 197.874 315.445 192.028C309.924 186.102 307.163 177.858 307.163 167.303C307.163 156.748 309.924 148.628 315.445 142.699C320.967 136.773 328.356 133.808 337.614 133.808C346.872 133.808 354.462 136.852 359.904 142.941C365.346 149.029 368.065 156.54 368.065 165.472L367.456 171.561H321.783C322.109 176.515 323.731 180.493 326.654 183.496C329.578 186.503 333.435 188.004 338.226 188.004C343.668 188.004 348.131 185.569 351.625 180.698H366.851C364.903 186.624 361.492 191.457 356.621 195.193C351.83 198.93 345.658 200.798 338.109 200.798H338.098ZM321.776 160.605H353.444C352.794 156.464 351.088 153.095 348.328 150.497C345.567 147.898 341.993 146.598 337.61 146.598C333.469 146.598 330.016 147.857 327.256 150.372C324.574 152.807 322.748 156.218 321.776 160.601V160.605Z" fill="white"/>
<path d="M241.436 199.582V114.322H276.758C285.04 114.322 291.779 116.758 296.975 121.629C302.171 126.5 304.769 132.997 304.769 141.116C304.769 145.257 304.077 148.993 302.697 152.321C301.396 155.649 299.611 158.289 297.338 160.237C295.145 162.184 292.993 163.727 290.883 164.866C288.852 165.921 286.783 166.734 284.669 167.301L307.201 199.578H290.149L268.226 167.91H256.654V199.578H241.429L241.436 199.582ZM256.658 154.515H275.657C279.882 154.515 283.251 153.339 285.766 150.983C288.285 148.627 289.54 145.34 289.54 141.116C289.54 136.892 288.281 133.605 285.766 131.249C283.247 128.893 279.84 127.717 275.536 127.717H256.658V154.511V154.515Z" fill="white"/>
<path d="M539.867 97.9854V33.4345H551.439L553.265 41.3498H553.874C557.528 35.2611 563.416 32.2168 571.535 32.2168C578.6 32.2168 584.325 34.6107 588.708 39.4021C593.091 44.1936 595.285 50.5281 595.285 58.4017V97.9854H581.277V59.6195C581.277 55.0738 580.018 51.5 577.503 48.9019C575.067 46.3039 571.86 45.0029 567.882 45.0029C563.904 45.0029 560.371 46.4249 557.773 49.265C555.175 52.1051 553.874 55.6372 553.874 59.8615V97.9854H539.867Z" fill="white"/>
<path d="M514.967 97.9835V33.4326H528.975V97.9835H514.967Z" fill="white"/>
<path d="M498.759 90.3102C493.237 96.2362 485.848 99.2011 476.59 99.2011C467.332 99.2011 459.946 96.2362 454.421 90.3102C448.9 84.3841 446.139 76.1815 446.139 65.706C446.139 55.2305 448.9 47.0317 454.421 41.1019C459.943 35.1758 467.332 32.2109 476.59 32.2109C485.848 32.2109 493.237 35.1758 498.759 41.1019C504.28 47.0279 507.041 55.2305 507.041 65.706C507.041 76.1815 504.28 84.3804 498.759 90.3102ZM464.776 81.1734C467.862 84.664 471.798 86.4112 476.59 86.4112C481.381 86.4112 485.318 84.664 488.404 81.1734C491.49 77.5997 493.033 72.4451 493.033 65.706C493.033 58.9669 491.49 53.8502 488.404 50.3596C485.318 46.7858 481.381 45.0009 476.59 45.0009C471.798 45.0009 467.862 46.7858 464.776 50.3596C461.69 53.8502 460.147 58.9669 460.147 65.706C460.147 72.4451 461.69 77.6034 464.776 81.1734Z" fill="white"/>
<path d="M413.525 99.2011C404.267 99.2011 396.878 96.2362 391.356 90.3102C385.835 84.3841 383.074 76.1815 383.074 65.706C383.074 55.2305 385.835 47.0317 391.356 41.1019C396.878 35.1758 404.267 32.2109 413.525 32.2109C421.077 32.2109 427.328 34.2417 432.283 38.2996C437.237 42.278 440.523 47.3531 442.149 53.525H428.142C424.976 47.841 420.101 45.0009 413.525 45.0009C408.571 45.0009 404.592 46.8275 401.59 50.4806C398.583 54.0544 397.082 59.1295 397.082 65.706C397.082 72.2825 398.583 77.3992 401.59 81.0524C404.592 84.6262 408.571 86.4112 413.525 86.4112C420.101 86.4112 424.972 83.5711 428.142 77.8871H442.149C440.523 84.0589 437.237 89.1719 432.283 93.2335C427.328 97.2119 421.077 99.2011 413.525 99.2011Z" fill="white"/>
<path d="M366.734 97.9836C360.971 97.9836 356.463 96.4407 353.214 93.3547C350.049 90.1894 348.464 85.8442 348.464 80.3228V46.2189H338.11V33.4289H348.464V16.377H362.472V33.4289H378.306V46.2189H362.472V78.4962C362.472 80.3644 363.081 81.949 364.299 83.2461C365.516 84.5432 367.142 85.1937 369.17 85.1937H378.302V97.9836H366.73H366.734Z" fill="white"/>
<path d="M315.959 97.9835V33.4326H329.967V97.9835H315.959Z" fill="white"/>
<path d="M257.036 84.5857H280.177C283.992 84.5857 286.957 83.5722 289.068 81.5414C291.261 79.5106 292.358 76.6704 292.358 73.0173C292.358 69.3641 291.261 66.645 289.068 64.6142C286.957 62.504 283.992 61.4489 280.177 61.4489H257.036V84.5895V84.5857ZM241.814 97.9845V12.7246H280.789C288.909 12.7246 295.202 14.8348 299.668 19.0591C304.134 23.2833 306.365 29.0883 306.365 36.4779C306.365 40.5395 305.31 44.1927 303.2 47.4412C301.169 50.6897 298.571 53.1252 295.406 54.7476C298.98 56.3699 301.903 58.8886 304.176 62.2997C306.449 65.6277 307.587 69.6061 307.587 74.235C307.587 81.6246 305.356 87.4296 300.889 91.6538C296.423 95.878 290.13 97.9882 282.011 97.9882H241.818L241.814 97.9845ZM257.036 49.264H278.959C282.695 49.264 285.656 48.2505 287.85 46.2197C290.043 44.1095 291.14 41.2656 291.14 37.6956C291.14 34.1256 290.043 31.3233 287.85 29.2925C285.656 27.1823 282.695 26.1272 278.959 26.1272H257.036V49.2678V49.264Z" fill="white"/>
<path fill-rule="evenodd" clip-rule="evenodd" d="M312.919 18.9371V2.69061C312.919 1.00773 314.943 0.164395 316.123 1.35565L334.075 19.4174C335.255 20.6048 334.426 22.6319 332.759 22.6394L316.713 22.7302C314.621 22.7415 312.919 21.0397 312.919 18.9371Z" fill="white"/>
<path fill-rule="evenodd" clip-rule="evenodd" d="M606.101 93.0591V76.8127C606.101 75.1298 608.124 74.2865 609.304 75.4777L627.634 93.5394C628.814 94.7269 627.608 96.7539 625.94 96.7615L609.894 96.8522C607.802 96.8636 606.101 95.1618 606.101 93.0591Z" fill="white"/>
<path fill-rule="evenodd" clip-rule="evenodd" d="M510.865 18.9371V2.69061C510.865 1.00773 512.888 0.164395 514.068 1.35565L532.02 19.4174C533.2 20.6048 532.372 22.6319 530.704 22.6394L514.658 22.7302C512.567 22.7415 510.865 21.0397 510.865 18.9371Z" fill="white"/>
</svg>
